<svg xmlns="http://www.w3.org/2000/svg" viewBox="0 0 32 32">
  <defs>
    <linearGradient id="grad" x1="0%" y1="0%" x2="100%" y2="100%">
      <stop offset="0%" style="stop-color:#4F46E5"/>
      <stop offset="100%" style="stop-color:#7C3AED"/>
    </linearGradient>
  </defs>
  <circle cx="16" cy="16" r="16" fill="url(#grad)"/>
  <g fill="white" transform="translate(6, 7)">
    <path d="M0 1.5A.5.5 0 0 1 .5 1H2a.5.5 0 0 1 .485.379L2.89 3H18.5a.5.5 0 0 1 .491.592l-1.5 8A.5.5 0 0 1 17 12H4a.5.5 0 0 1-.491-.408L1.01 2H.5a.5.5 0 0 1-.5-.5zM3.14 4l1.25 6.5H16.86l1.25-6.5H3.14z"/>
    <circle cx="6" cy="16" r="2"/>
    <circle cx="15" cy="16" r="2"/>
  </g>
</svg>
